<?xml version="1.0" encoding="utf-8"?>
<svg xmlns="http://www.w3.org/2000/svg" version="1.1" viewBox="0 0 200 200" xmlns:bx="https://boxy-svg.com" width="200px" height="200px"><defs><bx:export><bx:file format="svg"/></bx:export></defs><g><g fill="#ffb347" transform="matrix(7.4262691377921035,0,0,7.4262691377921035,2.0441510958790587,152.80014942770134)" stroke="#4d1c2f" stroke-width="0"><path d="M8.87 0L6.36-5.02L4.50-5.02L4.50 0L1.07 0L1.07-14.22L6.67-14.22Q9.20-14.22 10.63-13.10Q12.05-11.97 12.05-9.92L12.05-9.92Q12.05-8.44 11.45-7.46Q10.85-6.48 9.57-5.88L9.57-5.88L12.54-0.15L12.54 0L8.87 0ZM4.50-11.57L4.50-7.67L6.67-7.67Q7.65-7.67 8.14-8.18Q8.63-8.69 8.63-9.61Q8.63-10.53 8.13-11.05Q7.64-11.57 6.67-11.57L6.67-11.57L4.50-11.57ZM19.74-4.82L17.55-4.82L17.55 0L14.12 0L14.12-14.22L19.79-14.22Q21.43-14.22 22.68-13.62Q23.94-13.02 24.62-11.91Q25.31-10.80 25.31-9.39L25.31-9.39Q25.31-7.31 23.82-6.07Q22.33-4.82 19.74-4.82L19.74-4.82ZM17.55-11.57L17.55-7.47L19.79-7.47Q20.79-7.47 21.31-7.97Q21.84-8.47 21.84-9.38L21.84-9.38Q21.84-10.37 21.30-10.97Q20.76-11.56 19.83-11.57L19.83-11.57L17.55-11.57Z"/></g></g></svg>